<?xml version="1.0" encoding="UTF-8"?> <svg xmlns="http://www.w3.org/2000/svg" xmlns:xlink="http://www.w3.org/1999/xlink" width="1124" height="474" viewBox="0 0 1124 474"><defs><clipPath id="clip-path"><rect id="Rectangle_2" data-name="Rectangle 2" width="1092" height="290.583"></rect></clipPath><clipPath id="clip-Web_1920_1"><rect width="1124" height="474"></rect></clipPath></defs><g id="Web_1920_1" data-name="Web 1920 – 1" clip-path="url(#clip-Web_1920_1)"><rect width="1124" height="474" fill="#fff"></rect><path id="Path_12" data-name="Path 12" d="M41.76,19.04V8.8H.32V19.04H14.56V64H27.52V19.04ZM95.2,64V8.8H82.24V30.16H60.08V8.8H47.12V64H60.08V40.88H82.24V64Zm46.56,0V53.52h-23.6V40.72h21.6V30.4h-21.6V19.12h22.88V8.8H105.28V64Zm72.72-27.6c0-18.4-12.88-27.6-30.24-27.6H165.52V64h18.72C201.68,64,214.48,54.88,214.48,36.4Zm-13.12,0c0,10.24-6.16,16.64-16.4,16.64H178.4V19.52h6.56C195.44,19.52,201.36,26,201.36,36.4ZM269.84,64,249.04,8.72H235.6L214.8,64h13.44l3.92-11.12h19.68L255.76,64ZM248.88,42.8H235.12L242,22.96Zm70-34H305.2l-12.88,38-12.96-38H265.6L286.08,64H298.4ZM336.56,64V8.8H323.6V64ZM395.6,36.4c0-18.4-12.88-27.6-30.24-27.6H346.64V64h18.72C382.8,64,395.6,54.88,395.6,36.4Zm-13.12,0c0,10.24-6.16,16.64-16.4,16.64h-6.56V19.52h6.56C376.56,19.52,382.48,26,382.48,36.4Zm73.44,10.8c0-8-4.96-12.56-12-15.12-1.76-.72-5.84-2.16-8.24-3.12-2.48-.96-5.6-2.24-5.6-5.6s3.04-4.96,7.2-4.96,9.12,2.4,12.32,5.6l5.52-9.04c-3.76-3.76-11.12-6.8-17.52-6.8s-11.44,1.76-14.56,4.4a15.546,15.546,0,0,0-5.76,12.08c0,5.2,1.92,8.4,4.32,10.64a21.562,21.562,0,0,0,6.56,4c1.84.8,6,2.24,8.4,3.12s6.48,2.32,6.48,6.08c0,3.68-3.2,5.68-7.36,5.68-4.24,0-10.4-2.8-14.4-6.96l-6.4,9.44c4.48,4.16,11.6,8.32,19.6,8.32C445.2,64.96,455.92,59.12,455.92,47.2ZM512.72,64V8.8H500.08V33.84c0,5.84.24,12.08.24,12.08L476.64,8.8H462.8V64h12.64V39.04c0-5.84-.24-12.48-.24-12.48L499.44,64Zm65.84-27.52c0-17.84-12.88-28.56-29.28-28.56S520,18.64,520,36.48s12.88,28.48,29.28,28.48S578.56,54.32,578.56,36.48Zm-13.12-.32c0,10.56-6.96,17.28-16.16,17.28s-16.16-6.72-16.16-17.28,6.96-17.2,16.16-17.2S565.44,25.68,565.44,36.16ZM658,8.8H644.48L634.96,46l-10-37.2H612L602.08,46l-9.6-37.2H578.96l16,55.2H608l10.48-37.84L628.96,64H642Zm53.76,27.6c0-18.4-12.88-27.6-30.24-27.6H662.8V64h18.72C698.96,64,711.76,54.88,711.76,36.4Zm-13.12,0c0,10.24-6.16,16.64-16.4,16.64h-6.56V19.52h6.56C692.72,19.52,698.64,26,698.64,36.4Zm76.16.08c0-17.84-12.88-28.56-29.28-28.56s-29.28,10.72-29.28,28.56,12.88,28.48,29.28,28.48S774.8,54.32,774.8,36.48Zm-13.12-.32c0,10.56-6.96,17.28-16.16,17.28s-16.16-6.72-16.16-17.28,6.96-17.2,16.16-17.2S761.68,25.68,761.68,36.16ZM832,64V8.8H819.36V33.84c0,5.84.24,12.08.24,12.08L795.92,8.8H782.08V64h12.64V39.04c0-5.84-.24-12.48-.24-12.48L818.72,64Zm62.56-44.96V8.8H853.12V19.04h14.24V64h12.96V19.04ZM943.6,64l-14-22.8c4.08-1.28,10.8-5.36,10.8-15.84,0-12.08-10.08-16.56-20.64-16.56H899.92V64h12.96V42.88h4.08L928.56,64ZM927.36,25.84c0,5.68-4.64,7.12-9.44,7.12H912.8V18.8h5.12C922.72,18.8,927.36,20.08,927.36,25.84Zm66.4,15.12V8.8H980.72V40.96c0,3.92-.32,6.96-2.16,9.2a10.837,10.837,0,0,1-15.84,0c-1.84-2.24-2.16-5.28-2.16-9.2V8.8H947.52V40.96c0,7.76,1.36,13.12,5.2,17.36,3.92,4.16,9.84,6.56,17.92,6.56,8,0,14-2.4,17.84-6.56C992.4,54.08,993.76,48.72,993.76,40.96Zm46.56,6.24c0-8-4.96-12.56-12-15.12-1.76-.72-5.84-2.16-8.24-3.12-2.48-.96-5.6-2.24-5.6-5.6s3.04-4.96,7.2-4.96,9.12,2.4,12.32,5.6l5.52-9.04c-3.76-3.76-11.12-6.8-17.52-6.8s-11.44,1.76-14.56,4.4a15.546,15.546,0,0,0-5.76,12.08c0,5.2,1.92,8.4,4.32,10.64a21.563,21.563,0,0,0,6.56,4c1.84.8,6,2.24,8.4,3.12s6.48,2.32,6.48,6.08c0,3.68-3.2,5.68-7.36,5.68-4.24,0-10.4-2.8-14.4-6.96l-6.4,9.44c4.48,4.16,11.6,8.32,19.6,8.32C1029.6,64.96,1040.32,59.12,1040.32,47.2Zm42.8-28.16V8.8h-41.44V19.04h14.24V64h12.96V19.04Z" transform="translate(18.5 320.633)" fill="#4e769d"></path><path id="Path_11" data-name="Path 11" d="M10.9,40V5.5H6.05V40Zm27.75,0V25.95c0-5.7-1.75-10.15-8.5-10.15A8.023,8.023,0,0,0,22.9,20h-.15l.05-3.75H18V40h4.8V28.05c0-4.55,1.65-8.3,6.1-8.3,4.25,0,4.95,3,4.95,7V40Zm26.3-3.05-1.7-3.5a10.058,10.058,0,0,1-7.25,3c-4.6,0-7.7-3.45-7.7-8.45s3.5-8.2,7.7-8.2a9.368,9.368,0,0,1,7.1,2.9l1.7-3.5c-.25-.3-2.85-3.4-9.2-3.4A11.985,11.985,0,0,0,43.45,28.15c0,7.6,5.6,12.4,12,12.4C61.8,40.55,64.25,37.65,64.95,36.95Zm27.4-8.75c0-7.35-5.5-12.4-12.55-12.4-7.1,0-12.6,5.05-12.6,12.4,0,7.4,5.5,12.35,12.6,12.35C86.85,40.55,92.35,35.6,92.35,28.2Zm-4.85-.15c0,4.7-2.95,8.4-7.7,8.4-4.8,0-7.75-3.7-7.75-8.4,0-4.65,2.95-8.35,7.75-8.35C84.55,19.7,87.5,23.4,87.5,28.05ZM110.6,16.2a6.675,6.675,0,0,0-2.5-.4,6.2,6.2,0,0,0-5.85,4.1h-.15l.05-3.65h-4.8V40h4.8V28.15c0-3.45,1.05-8,5.35-8a6.287,6.287,0,0,1,2.6.5h.2Zm28.3,11.9c0-7.05-4.45-12.3-11.45-12.3A10.068,10.068,0,0,0,119,20h-.1V16.25h-4.6V49.3h4.8V36.25l.05.05a9.227,9.227,0,0,0,8.2,4.25C134.4,40.55,138.9,35.15,138.9,28.1Zm-4.9-.05c0,4.75-2.8,8.4-7.55,8.4s-7.55-3.65-7.55-8.4,2.8-8.35,7.55-8.35S134,23.3,134,28.05Zm33.45.15c0-7.35-5.5-12.4-12.55-12.4-7.1,0-12.6,5.05-12.6,12.4,0,7.4,5.5,12.35,12.6,12.35C161.95,40.55,167.45,35.6,167.45,28.2Zm-4.85-.15c0,4.7-2.95,8.4-7.7,8.4-4.8,0-7.75-3.7-7.75-8.4,0-4.65,2.95-8.35,7.75-8.35C159.65,19.7,162.6,23.4,162.6,28.05ZM185.7,16.2a6.675,6.675,0,0,0-2.5-.4,6.2,6.2,0,0,0-5.85,4.1h-.15l.05-3.65h-4.8V40h4.8V28.15c0-3.45,1.05-8,5.35-8a6.287,6.287,0,0,1,2.6.5h.2ZM206.65,40V26.2c0-6.9-3.45-10.4-10.4-10.4a18.29,18.29,0,0,0-8.9,2.4l1.45,3.2a14.585,14.585,0,0,1,7.15-2.05c3.45,0,5.9,1.8,5.9,5.4v.95l-6.35.25c-5.5.25-9.3,2.6-9.3,7.25,0,4.6,3.8,7.35,8.2,7.35A9.8,9.8,0,0,0,201.95,37l.05,3ZM201.9,28.6v5.1a7.457,7.457,0,0,1-6.05,3.45c-3.15,0-4.9-1.85-4.9-4.1s1.55-3.9,5.4-4.1Zm22.45,11.15-.3-3.85a5.793,5.793,0,0,1-2.45.55,2.487,2.487,0,0,1-2.45-1.2c-.55-1-.6-2.35-.6-4.35V20.15h5.7V16.3h-5.7V9.2h-4.8v7.1h-3.5v3.85h3.5V31c0,4.65.3,9.55,6.25,9.55A10.722,10.722,0,0,0,224.35,39.75Zm9.7-31.3a3.13,3.13,0,1,0-3.1,2.95A2.932,2.932,0,0,0,234.05,8.45ZM233.35,40V16.25h-4.8V40Zm27.45,0V25.95c0-5.7-1.75-10.15-8.5-10.15a8.023,8.023,0,0,0-7.25,4.2h-.15l.05-3.75h-4.8V40h4.8V28.05c0-4.55,1.65-8.3,6.1-8.3,4.25,0,4.95,3,4.95,7V40Zm29.4-5V16.25h-4.75L285.5,20h-.15a9.492,9.492,0,0,0-8.3-4.2c-6.1,0-11.45,4.4-11.45,11.95s5.35,11.95,11.45,11.95a9.524,9.524,0,0,0,8.3-4.25h.1v1.2c0,5.6-2.25,9.25-8.3,9.25a15.038,15.038,0,0,1-8.5-3l-2.25,3.35A18.243,18.243,0,0,0,277,49.8c5.9,0,8.85-2.4,10.6-4.55C289.35,43.15,290.2,40.25,290.2,35Zm-4.6-7.25c0,4.5-2.65,8.05-7.55,8.05-4.85,0-7.55-3.55-7.55-8.05s2.7-8.1,7.55-8.1C282.95,19.65,285.6,23.25,285.6,27.75Zm42.55-18.2V5.5h-24.3V9.55h9.75V40h4.85V9.55ZM352.75,40V25.85c0-5.65-1.65-10.05-8.5-10.05a8.1,8.1,0,0,0-7.3,4.2h-.1V5.5H332.1V40h4.75V28.25c0-4.75,1.85-8.5,6.2-8.5s4.9,3.4,4.9,6.8V40Zm28.2-12.85c0-6.65-4.65-11.35-11.25-11.35s-12.05,4.8-12.05,12.3c0,7.55,4.85,12.45,11.9,12.45,7.1,0,10.15-3.5,10.45-3.75l-2-2.75a13.139,13.139,0,0,1-7.85,2.75c-4.4,0-7.4-2.85-7.65-7.55h18.3A20.7,20.7,0,0,0,380.95,27.15Zm-4.55-1.1H362.55a6.988,6.988,0,0,1,7-6.8A6.863,6.863,0,0,1,376.4,26.05ZM425.5,40V5.5h-4.75V23.8c0,4.55.05,8.8.05,8.8L401.25,5.5h-5.1V40h4.8V21.65c0-4.5-.1-9.15-.1-9.15L420.75,40Zm28.85-12.85c0-6.65-4.65-11.35-11.25-11.35s-12.05,4.8-12.05,12.3c0,7.55,4.85,12.45,11.9,12.45,7.1,0,10.15-3.5,10.45-3.75l-2-2.75a13.139,13.139,0,0,1-7.85,2.75c-4.4,0-7.4-2.85-7.65-7.55h18.3A20.7,20.7,0,0,0,454.35,27.15Zm-4.55-1.1H435.95a6.988,6.988,0,0,1,7-6.8A6.863,6.863,0,0,1,449.8,26.05Zm30.05-9.8H474.9l-7,17.9-7.05-17.9h-5L465.75,40h4.2Zm9.05-7.8a3.13,3.13,0,1,0-3.1,2.95A2.932,2.932,0,0,0,488.9,8.45ZM488.2,40V16.25h-4.8V40ZM500,40V5.5h-4.75V40Zm11.85,0V5.5H507.1V40ZM540.4,27.15c0-6.65-4.65-11.35-11.25-11.35S517.1,20.6,517.1,28.1c0,7.55,4.85,12.45,11.9,12.45,7.1,0,10.15-3.5,10.45-3.75l-2-2.75a13.138,13.138,0,0,1-7.85,2.75c-4.4,0-7.4-2.85-7.65-7.55h18.3A20.7,20.7,0,0,0,540.4,27.15Zm-4.55-1.1H522a6.988,6.988,0,0,1,7-6.8A6.863,6.863,0,0,1,535.85,26.05Zm40.6-16.5V5.5h-24.3V9.55h9.75V40h4.85V9.55ZM597.85,40V26.2c0-6.9-3.45-10.4-10.4-10.4a18.29,18.29,0,0,0-8.9,2.4L580,21.4a14.584,14.584,0,0,1,7.15-2.05c3.45,0,5.9,1.8,5.9,5.4v.95l-6.35.25c-5.5.25-9.3,2.6-9.3,7.25,0,4.6,3.8,7.35,8.2,7.35A9.8,9.8,0,0,0,593.15,37l.05,3ZM593.1,28.6v5.1a7.457,7.457,0,0,1-6.05,3.45c-3.15,0-4.9-1.85-4.9-4.1s1.55-3.9,5.4-4.1ZM609,40V5.5h-4.75V40Zm31.7-11.9c0-7-4.5-12.3-11.45-12.3a9.438,9.438,0,0,0-8.3,4.15h-.1V5.5H616.1V40h4.6V36.25h.1a9.618,9.618,0,0,0,8.35,4.3C636.2,40.55,640.7,35.15,640.7,28.1Zm-4.9-.05c0,4.75-2.8,8.4-7.55,8.4s-7.6-3.65-7.6-8.4,2.85-8.35,7.6-8.35S635.8,23.3,635.8,28.05Zm33.45.15c0-7.35-5.5-12.4-12.55-12.4-7.1,0-12.6,5.05-12.6,12.4,0,7.4,5.5,12.35,12.6,12.35C663.75,40.55,669.25,35.6,669.25,28.2Zm-4.85-.15c0,4.7-2.95,8.4-7.7,8.4-4.8,0-7.75-3.7-7.75-8.4,0-4.65,2.95-8.35,7.75-8.35C661.45,19.7,664.4,23.4,664.4,28.05Zm21.4,11.7-.3-3.85a5.793,5.793,0,0,1-2.45.55,2.487,2.487,0,0,1-2.45-1.2c-.55-1-.6-2.35-.6-4.35V20.15h5.7V16.3H680V9.2h-4.8v7.1h-3.5v3.85h3.5V31c0,4.65.3,9.55,6.25,9.55A10.722,10.722,0,0,0,685.8,39.75Zm42.75-4.25-2.1-3.55a13.656,13.656,0,0,1-10.3,4.2c-7.4,0-12.85-5.35-12.85-13.45s5.4-13.45,12.85-13.45c4.8,0,8.65,2.5,10,4.2l2.05-3.9C726.3,7.7,722.4,5,715.95,5c-9.9,0-17.65,7.05-17.65,17.8s7.55,17.8,17.6,17.8C722.45,40.6,726.4,37.9,728.55,35.5ZM753.9,40V25.85c0-5.65-1.65-10.05-8.5-10.05a8.1,8.1,0,0,0-7.3,4.2H738V5.5h-4.75V40H738V28.25c0-4.75,1.85-8.5,6.2-8.5s4.9,3.4,4.9,6.8V40Zm24.95,0V26.2c0-6.9-3.45-10.4-10.4-10.4a18.29,18.29,0,0,0-8.9,2.4L761,21.4a14.584,14.584,0,0,1,7.15-2.05c3.45,0,5.9,1.8,5.9,5.4v.95l-6.35.25c-5.5.25-9.3,2.6-9.3,7.25,0,4.6,3.8,7.35,8.2,7.35A9.8,9.8,0,0,0,774.15,37l.05,3ZM774.1,28.6v5.1a7.457,7.457,0,0,1-6.05,3.45c-3.15,0-4.9-1.85-4.9-4.1s1.55-3.9,5.4-4.1Zm24.15-12.4a6.675,6.675,0,0,0-2.5-.4,6.2,6.2,0,0,0-5.85,4.1h-.15l.05-3.65H785V40h4.8V28.15c0-3.45,1.05-8,5.35-8a6.287,6.287,0,0,1,2.6.5h.2Zm9.2-7.75a3.13,3.13,0,1,0-3.1,2.95A2.932,2.932,0,0,0,807.45,8.45ZM806.75,40V16.25h-4.8V40Zm18.35-.25-.3-3.85a5.793,5.793,0,0,1-2.45.55,2.487,2.487,0,0,1-2.45-1.2c-.55-1-.6-2.35-.6-4.35V20.15H825V16.3h-5.7V9.2h-4.8v7.1H811v3.85h3.5V31c0,4.65.3,9.55,6.25,9.55A10.722,10.722,0,0,0,825.1,39.75Zm24.75-23.5-4.95-.05-7,18.5-7.2-18.45-5-.05,9.65,23.3-1.15,3.15c-.65,1.75-1.15,2.8-3.1,2.8a7.533,7.533,0,0,1-2.5-.55l-.95,3.9a11.761,11.761,0,0,0,4.5.85c2.65,0,4.6-1.4,6.25-5.5Z" transform="translate(138.5 400.633)" fill="#5bb8e5"></path><g id="mountains" transform="translate(12.996 11.748)" clip-path="url(#clip-path)"><g id="Group_9" data-name="Group 9" transform="translate(-0.002 -0.002)"><g id="Group_6" data-name="Group 6" transform="translate(0 44.946)"><g id="Group_5" data-name="Group 5"><path id="Path_7" data-name="Path 7" d="M301.02,19.332C275.889,6.2,225.627,3.911,195.355,14.763c-29.7,10.281-86.816,51.4-115.945,83.96C69.7,109,56.563,123.283,50.281,130.137,44,136.42,33.717,148.414,27.434,156.41L16.011,170.689l11.423-8.567c6.283-4.569,31.985-27.416,57.687-51.4,82.247-76.535,111.376-93.67,159.354-93.67,32.556,0,65.683,11.423,65.683,22.846,0,4,20.562,19.419,23.989,19.419,2.856,0,8.567,3.427,13.137,6.854,73.108,70.253,113.09,101.666,154.784,121.086C521.487,196.392,326.151,31.9,301.02,19.332Z" transform="translate(75.439 -7.869)" fill="#4e769d"></path><path id="Path_8" data-name="Path 8" d="M60.607,59.586C46.9,72.723,26.338,90.429,14.914,99.568S-2.791,116.131,1.207,116.7c3.427,0,25.7-17.706,48.549-39.981C94.306,34.455,102.3,21.319,60.607,59.586Z" transform="translate(0 128.936)" fill="#4e769d"></path></g></g><g id="Group_7" data-name="Group 7" transform="translate(168.339)"><path id="Path_9" data-name="Path 9" d="M314.128,7.861c-11.994,4.569-38.839,21.7-59.972,38.839-51.976,40.552-64.541,35.983-64.541,47.406,0,4-19.419,26.273-42.837,49.12C74.812,212.907,13.7,282.017,33.118,271.736c9.139-5.14,29.7-21.133,45.122-35.983,15.992-14.85,51.4-47.977,79.391-74.251,27.416-26.273,52.547-47.977,55.974-47.977,2.856,0,91.6-88.872,113.986-78.706,13.114,5.957,19.722-5.232,34.669,2.639,37.028-7.608,26.587.571,41.592,9.241Q459.266,78.736,536.88,157.5l21.7,17.706c12.565,9.71,36.554,24.56,53.689,32.556s35.412,17.135,40.552,19.419c10.852,6.283,61.685,15.992,102.238,19.991,21.7,2.285,27.987,1.713,19.991-1.713-6.283-2.856-19.419-5.712-29.7-5.712C708.8,238.609,590,186.634,558.585,158.076c-10.852-10.281-30.843-22.275-47.406-34.841-9.139-6.854-39.981-33.7-68.539-59.972C371.244-2.991,358.679-8.7,314.128,7.861ZM395.8,43.844c21.7,10.852,26.844,14.85,61.114,46.264,11.423,10.281,69.682,56.768,79.962,64.193,5.255,4.324-77.918-74.736-140.939-115.78-20.944-13.639-22.218.942-40.421-8.082-28.3-14.022-45.459,12.845-53.757,5.346-8-6.854-45.322,34.721-47.606,34.721-2.856,0-30.271,26.5-14.85,13.365C299.849,33.037,351.825,21.569,395.8,43.844Z" transform="translate(-29.473 0)" fill="#5bb8e5"></path></g><g id="Group_8" data-name="Group 8" transform="translate(469.115 15.805)"><path id="Path_10" data-name="Path 10" d="M111.551,194.569c-26.587,19.02-25.891,41.209-29.318,48.063-3.141,5.712,68.311-45.619,98.582-75.89l45.122-45.122q10.852-9.71,24.56-24.56c37.7-41.123,113.09-82.247,150.786-82.247,35.412,0,77.678,25.7,151.357,91.386,65.683,58.258,125.655,97.1,149.073,97.1,8,0,3.427-3.427-35.412-25.131-22.846-12.566-100.524-70.253-103.38-76.535-4-10.281-85.674-74.251-109.091-85.674-38.268-19.419-83.389-17.135-126.8,5.14-33.127,17.706-40.552,22.846-67.4,48.549A249.588,249.588,0,0,1,232.22,90.778C218.512,99.916,231.918,101.436,111.551,194.569Z" transform="translate(-82.133 -2.767)" fill="#5597cd"></path></g></g></g></g></svg> 