<svg width="25" height="28" viewBox="0 0 25 28" fill="none" xmlns="http://www.w3.org/2000/svg">
<path d="M5.64401 0C2.80409 0 0.5 2.30409 0.5 5.14401V18.8614C0.5 21.4334 2.38614 23.5606 4.84561 23.9464L2.38078 26.4113C2.00569 26.7863 2.27361 27.4347 2.80409 27.4347H4.93135C5.38681 27.4347 5.82083 27.2525 6.14233 26.931L9.07334 24.0054H15.932L18.8577 26.931C19.1792 27.2525 19.6132 27.4347 20.0687 27.4347H22.1959C22.7317 27.4347 22.9997 26.7863 22.6192 26.4113L20.1544 23.9464C22.6192 23.566 24.5 21.4334 24.5 18.8614V5.14401C24.5 2.30409 22.1959 0 19.356 0H5.64401ZM3.92934 5.14401C3.92934 4.19558 4.69558 3.42934 5.64401 3.42934H19.3614C20.3098 3.42934 21.076 4.19558 21.076 5.14401V10.288C21.076 11.2364 20.3098 12.0027 19.3614 12.0027H5.64401C4.69558 12.0027 3.92934 11.2364 3.92934 10.288V5.14401ZM12.5027 15.432C13.1848 15.432 13.839 15.703 14.3214 16.1853C14.8037 16.6677 15.0747 17.3219 15.0747 18.004C15.0747 18.6862 14.8037 19.3404 14.3214 19.8227C13.839 20.305 13.1848 20.576 12.5027 20.576C11.8205 20.576 11.1663 20.305 10.684 19.8227C10.2017 19.3404 9.93068 18.6862 9.93068 18.004C9.93068 17.3219 10.2017 16.6677 10.684 16.1853C11.1663 15.703 11.8205 15.432 12.5027 15.432Z" fill="#CD171A"/>
</svg>
